<?xml version="1.0" encoding="utf-8"?>
<!-- Generator: Adobe Illustrator 18.0.0, SVG Export Plug-In . SVG Version: 6.00 Build 0)  -->
<!DOCTYPE svg PUBLIC "-//W3C//DTD SVG 1.1//EN" "http://www.w3.org/Graphics/SVG/1.1/DTD/svg11.dtd">
<svg version="1.1" id="Layer_1" xmlns="http://www.w3.org/2000/svg" xmlns:xlink="http://www.w3.org/1999/xlink" x="0px" y="0px"
	 viewBox="0 0 612 792" enable-background="new 0 0 612 792" xml:space="preserve">
<g>
	<path fill="#529BD4" d="M58,135h7.5c2,0,3.6,0.2,4.6,0.5s1.9,0.8,2.4,1.4s0.9,1.3,1.1,2.2s0.3,2.2,0.3,3.9v2.5c0,1.8-0.2,3.1-0.6,4
		s-1.1,1.5-2.1,1.9S69,152,67.4,152h-2v11.5H58V135z M65.4,139.8v7.2c0.2,0,0.4,0,0.5,0c0.7,0,1.2-0.2,1.4-0.5s0.4-1,0.4-2.1v-2.3
		c0-1-0.2-1.6-0.5-1.9S66.4,139.8,65.4,139.8z"/>
	<path fill="#529BD4" d="M82.2,149.1h-6.7v-1.6c0-1.8,0.2-3.2,0.6-4.2s1.3-1.8,2.5-2.6s2.9-1.1,4.9-1.1c2.4,0,4.2,0.4,5.4,1.3
		s2,1.9,2.2,3.1s0.4,3.8,0.4,7.6v11.7h-6.9v-2.1c-0.4,0.8-1,1.5-1.7,1.9c-0.7,0.4-1.5,0.6-2.5,0.6c-1.2,0-2.4-0.3-3.4-1
		s-1.6-2.2-1.6-4.6v-1.9c0-1.7,0.3-2.9,0.8-3.6s1.9-1.4,4.1-2.2c2.3-0.9,3.6-1.5,3.7-1.8s0.2-1,0.2-1.9c0-1.2-0.1-2-0.3-2.4
		s-0.5-0.6-0.9-0.6c-0.5,0-0.8,0.2-0.9,0.5s-0.2,1.1-0.2,2.4V149.1z M82.7,157.1c0,1.2,0.1,1.9,0.2,2.2s0.4,0.4,0.9,0.4
		c0.5,0,0.8-0.2,0.9-0.5s0.2-1.1,0.2-2.3c0-1.1-0.1-1.9-0.3-2.4s-0.8-1.3-2-2.1V157.1z"/>
	<path fill="#529BD4" d="M108.9,140.1l-2,16.9c-0.3,2.7-0.6,4.5-0.8,5.5s-0.6,1.8-1.1,2.4c-0.5,0.6-1.2,1.1-2.1,1.4
		s-2.3,0.4-4.3,0.4h-4.3V163c1.1,0,1.8-0.1,2.1-0.2s0.5-0.4,0.5-0.7c0-0.2-0.1-1-0.4-2.4l-3.9-19.5H99l2.3,15.8l1.1-15.8H108.9z"/>
	<path fill="#4AAB48" d="M127.2,135v19c0,2.2-0.1,3.7-0.2,4.5s-0.6,1.8-1.2,2.7s-1.6,1.6-2.7,2.1s-2.5,0.7-4,0.7
		c-1.7,0-3.2-0.3-4.5-0.8s-2.3-1.3-2.9-2.2s-1-1.9-1.1-2.9s-0.2-3.1-0.2-6.3V135h7.4v21.3c0,1.2,0.1,2,0.2,2.4s0.4,0.5,0.8,0.5
		c0.5,0,0.8-0.2,0.9-0.6s0.2-1.3,0.2-2.7v-21H127.2z"/>
	<path fill="#4AAB48" d="M137.1,140.1l-0.1,2.1c0.6-0.8,1.3-1.5,2.1-1.9c0.8-0.4,1.6-0.6,2.5-0.6c1.1,0,2.1,0.3,2.9,0.9
		s1.3,1.3,1.5,2s0.3,2.1,0.3,3.9v9.8c0,2.1-0.1,3.6-0.4,4.5s-0.8,1.6-1.5,2.1s-1.7,0.8-2.8,0.8c-0.9,0-1.7-0.2-2.4-0.6
		c-0.8-0.4-1.4-1-2.1-1.8v5.3h-7.1v-26.6H137.1z M139.1,146.9c0-1.4-0.1-2.3-0.2-2.6s-0.4-0.5-0.9-0.5c-0.5,0-0.8,0.2-0.9,0.5
		s-0.2,1.2-0.2,2.5v9.7c0,1.4,0.1,2.3,0.2,2.6s0.4,0.5,0.9,0.5c0.5,0,0.7-0.2,0.9-0.5s0.2-1.1,0.2-2.3V146.9z"/>
	<line fill="none" x1="117.7" y1="135" x2="120.3" y2="135"/>
	<g id="XMLID_1_">
		<g>
			<polygon fill="#FFFFFF" points="117.8,134.7 117.8,138.6 115.2,138.6 			"/>
		</g>
		<g>
		</g>
	</g>
	<g id="XMLID_2_">
		<g>
			<polygon fill="#FFFFFF" points="119.6,134.6 119.6,138.5 122.2,138.5 			"/>
		</g>
		<g>
		</g>
	</g>
</g>
</svg>
